# xmcd
#
# Track frame offsets:
#	150
#	14093
#	32493
#	47718
#	63247
#	78173
#	93382
#	108308
#	130584
#	149227
#	167532
#	186485
#	203783
#	221590
#	237721
#	271395
#
# Disc length: 3624 seconds
#
# Revision: 1
# Processed by: cddbd v1.5.2PL0 Copyright (c) Steve Scherf et al.
# Submitted via: audiograbber 1.83.01
#
DISCID=ea0e2610
DTITLE=Various Artist - Best of Country 2005 Karaoke
DYEAR=1900
DGENRE=Karaoke
TTITLE0=Alan Jackson - The Talking Song Repair Blues
TTITLE1=Big and Rich - Holy Water
TTITLE2=Blake Shelton - Goodbye Time
TTITLE3=Blake Shelton - Some Beach
TTITLE4=Craig Morgan - That's What I Love About Sunday
TTITLE5=Gretchen Wilson - Here For the Party
TTITLE6=Jo Dee Messina - My Give a Damns Busted
TTITLE7=Keith Urban - You'll Think of Me
TTITLE8=Keith Urban - Making Memories of Us
TTITLE9=Kenny Chesney - The Woman in You
TTITLE10=Montgomery Gentry - Gone
TTITLE11=Rascall Flatts - Bless the Broken Road
TTITLE12=Sara Evans - Suds in the Bucket
TTITLE13=Terri Clark - Girls Lie Too
TTITLE14=Tim Mcgraw - Live Like You Were Dying
TTITLE15=Data Track
EXTD=
EXTT0=
EXTT1=
EXTT2=
EXTT3=
EXTT4=
EXTT5=
EXTT6=
EXTT7=
EXTT8=
EXTT9=
EXTT10=
EXTT11=
EXTT12=
EXTT13=
EXTT14=
EXTT15=
PLAYORDER=
